<svg xmlns="http://www.w3.org/2000/svg" xmlns:xlink="http://www.w3.org/1999/xlink" width="500" zoomAndPan="magnify" viewBox="0 0 375 374.999991" height="500" preserveAspectRatio="xMidYMid meet" version="1.0"><defs><clipPath id="a6d72fd10d"><path d="M 237.0625 214 L 239.757812 214 L 239.757812 216.652344 L 237.0625 216.652344 Z M 237.0625 214 " clip-rule="nonzero"></path></clipPath><clipPath id="2c6cae8cf3"><path d="M 237.125 215.351562 C 237.125 214.949219 237.234375 214.640625 237.441406 214.425781 C 237.652344 214.210938 237.957031 214.101562 238.355469 214.101562 C 238.761719 214.101562 239.066406 214.210938 239.277344 214.433594 C 239.492188 214.660156 239.59375 214.964844 239.59375 215.351562 C 239.59375 215.746094 239.488281 216.058594 239.273438 216.285156 C 239.058594 216.511719 238.757812 216.628906 238.355469 216.628906 C 237.957031 216.628906 237.652344 216.511719 237.441406 216.289062 C 237.234375 216.066406 237.125 215.75 237.125 215.351562 " clip-rule="nonzero"></path></clipPath><clipPath id="7ef9a65a82"><path d="M 0.121094 0.078125 L 2.757812 0.078125 L 2.757812 2.652344 L 0.121094 2.652344 Z M 0.121094 0.078125 " clip-rule="nonzero"></path></clipPath><clipPath id="4c7475ad0e"><path d="M 0.125 1.351562 C 0.125 0.949219 0.234375 0.640625 0.441406 0.425781 C 0.652344 0.210938 0.957031 0.101562 1.355469 0.101562 C 1.761719 0.101562 2.066406 0.210938 2.277344 0.433594 C 2.492188 0.660156 2.59375 0.964844 2.59375 1.351562 C 2.59375 1.746094 2.488281 2.058594 2.273438 2.285156 C 2.058594 2.511719 1.757812 2.628906 1.355469 2.628906 C 0.957031 2.628906 0.652344 2.511719 0.441406 2.289062 C 0.234375 2.066406 0.125 1.75 0.125 1.351562 " clip-rule="nonzero"></path></clipPath><clipPath id="7145e75ee2"><rect x="0" width="3" y="0" height="3"></rect></clipPath><clipPath id="a63c4ba3d4"><path d="M 243.1875 207 L 250.292969 207 L 250.292969 216.652344 L 243.1875 216.652344 Z M 243.1875 207 " clip-rule="nonzero"></path></clipPath><clipPath id="dcc191036b"><path d="M 250.164062 213.78125 C 250.164062 214.675781 249.839844 215.363281 249.183594 215.839844 C 248.53125 216.316406 247.597656 216.554688 246.382812 216.554688 C 245.164062 216.554688 244.183594 216.367188 243.4375 216 L 243.4375 214.316406 C 244.515625 214.8125 245.519531 215.058594 246.449219 215.058594 C 247.648438 215.058594 248.25 214.699219 248.25 213.972656 C 248.25 213.742188 248.183594 213.542969 248.046875 213.394531 C 247.914062 213.242188 247.695312 213.078125 247.394531 212.914062 C 247.089844 212.746094 246.667969 212.554688 246.125 212.347656 C 245.070312 211.9375 244.355469 211.527344 243.980469 211.121094 C 243.609375 210.714844 243.421875 210.183594 243.421875 209.53125 C 243.421875 208.746094 243.738281 208.136719 244.371094 207.707031 C 245.003906 207.273438 245.863281 207.054688 246.953125 207.054688 C 248.03125 207.054688 249.050781 207.273438 250.011719 207.710938 L 249.378906 209.175781 C 248.390625 208.765625 247.558594 208.558594 246.886719 208.558594 C 245.855469 208.558594 245.34375 208.855469 245.34375 209.4375 C 245.34375 209.726562 245.480469 209.96875 245.746094 210.167969 C 246.011719 210.367188 246.597656 210.640625 247.5 210.988281 C 248.257812 211.28125 248.804688 211.550781 249.148438 211.792969 C 249.492188 212.039062 249.746094 212.316406 249.910156 212.636719 C 250.074219 212.957031 250.160156 213.335938 250.160156 213.777344 " clip-rule="nonzero"></path></clipPath><clipPath id="0e70a5f763"><path d="M 0.359375 0 L 7.292969 0 L 7.292969 9.652344 L 0.359375 9.652344 Z M 0.359375 0 " clip-rule="nonzero"></path></clipPath><clipPath id="acc6a26586"><path d="M 7.164062 6.78125 C 7.164062 7.675781 6.839844 8.363281 6.183594 8.839844 C 5.53125 9.316406 4.597656 9.554688 3.382812 9.554688 C 2.164062 9.554688 1.183594 9.367188 0.4375 9 L 0.4375 7.316406 C 1.515625 7.8125 2.519531 8.058594 3.449219 8.058594 C 4.648438 8.058594 5.25 7.699219 5.25 6.972656 C 5.25 6.742188 5.183594 6.542969 5.046875 6.394531 C 4.914062 6.242188 4.695312 6.078125 4.394531 5.914062 C 4.089844 5.746094 3.667969 5.554688 3.125 5.347656 C 2.070312 4.9375 1.355469 4.527344 0.980469 4.121094 C 0.609375 3.714844 0.421875 3.183594 0.421875 2.53125 C 0.421875 1.746094 0.738281 1.136719 1.371094 0.707031 C 2.003906 0.273438 2.863281 0.0546875 3.953125 0.0546875 C 5.03125 0.0546875 6.050781 0.273438 7.011719 0.710938 L 6.378906 2.175781 C 5.390625 1.765625 4.558594 1.558594 3.886719 1.558594 C 2.855469 1.558594 2.34375 1.855469 2.34375 2.4375 C 2.34375 2.726562 2.480469 2.96875 2.746094 3.167969 C 3.011719 3.367188 3.597656 3.640625 4.5 3.988281 C 5.257812 4.28125 5.804688 4.550781 6.148438 4.792969 C 6.492188 5.039062 6.746094 5.316406 6.910156 5.636719 C 7.074219 5.957031 7.160156 6.335938 7.160156 6.777344 " clip-rule="nonzero"></path></clipPath><clipPath id="b39fa86335"><rect x="0" width="8" y="0" height="10"></rect></clipPath><clipPath id="1fd59c7863"><path d="M 252.496094 205.140625 L 258.867188 205.140625 L 258.867188 216.652344 L 252.496094 216.652344 Z M 252.496094 205.140625 " clip-rule="nonzero"></path></clipPath><clipPath id="70c153e149"><path d="M 257.207031 214.980469 C 257.683594 214.980469 258.15625 214.902344 258.632812 214.757812 L 258.632812 216.222656 C 258.417969 216.316406 258.136719 216.394531 257.800781 216.457031 C 257.460938 216.519531 257.109375 216.550781 256.742188 216.550781 C 254.898438 216.550781 253.972656 215.582031 253.972656 213.632812 L 253.972656 208.699219 L 252.722656 208.699219 L 252.722656 207.839844 L 254.066406 207.125 L 254.730469 205.1875 L 255.933594 205.1875 L 255.933594 207.230469 L 258.542969 207.230469 L 258.542969 208.703125 L 255.933594 208.703125 L 255.933594 213.613281 C 255.933594 214.078125 256.046875 214.425781 256.285156 214.648438 C 256.519531 214.871094 256.828125 214.984375 257.210938 214.984375 " clip-rule="nonzero"></path></clipPath><clipPath id="b03ea83bc0"><path d="M 0.71875 0.140625 L 6.71875 0.140625 L 6.71875 11.652344 L 0.71875 11.652344 Z M 0.71875 0.140625 " clip-rule="nonzero"></path></clipPath><clipPath id="4a050e2bf4"><path d="M 5.207031 9.980469 C 5.683594 9.980469 6.15625 9.902344 6.632812 9.757812 L 6.632812 11.222656 C 6.417969 11.316406 6.136719 11.394531 5.800781 11.457031 C 5.460938 11.519531 5.109375 11.550781 4.742188 11.550781 C 2.898438 11.550781 1.972656 10.582031 1.972656 8.632812 L 1.972656 3.699219 L 0.722656 3.699219 L 0.722656 2.839844 L 2.066406 2.125 L 2.730469 0.1875 L 3.933594 0.1875 L 3.933594 2.230469 L 6.542969 2.230469 L 6.542969 3.703125 L 3.933594 3.703125 L 3.933594 8.613281 C 3.933594 9.078125 4.046875 9.425781 4.285156 9.648438 C 4.519531 9.871094 4.828125 9.984375 5.210938 9.984375 " clip-rule="nonzero"></path></clipPath><clipPath id="8e8b85665d"><rect x="0" width="7" y="0" height="12"></rect></clipPath><clipPath id="6cccf19a20"><path d="M 261.316406 207 L 270.136719 207 L 270.136719 216.652344 L 261.316406 216.652344 Z M 261.316406 207 " clip-rule="nonzero"></path></clipPath><clipPath id="2328b5836e"><path d="M 263.445312 211.789062 C 263.445312 213.90625 264.230469 214.964844 265.792969 214.964844 C 267.339844 214.964844 268.113281 213.90625 268.113281 211.789062 C 268.113281 209.695312 267.335938 208.648438 265.777344 208.648438 C 264.957031 208.648438 264.363281 208.921875 264 209.460938 C 263.632812 210 263.445312 210.777344 263.445312 211.789062 M 270.121094 211.789062 C 270.121094 213.285156 269.738281 214.457031 268.964844 215.296875 C 268.195312 216.132812 267.128906 216.554688 265.757812 216.554688 C 264.902344 216.554688 264.144531 216.363281 263.488281 215.976562 C 262.828125 215.589844 262.324219 215.035156 261.972656 214.3125 C 261.621094 213.585938 261.441406 212.746094 261.441406 211.789062 C 261.441406 210.300781 261.824219 209.144531 262.585938 208.304688 C 263.347656 207.46875 264.421875 207.054688 265.8125 207.054688 C 267.140625 207.054688 268.1875 207.484375 268.960938 208.335938 C 269.738281 209.191406 270.125 210.34375 270.125 211.789062 " clip-rule="nonzero"></path></clipPath><clipPath id="7212a4254b"><path d="M 0.359375 0 L 9.136719 0 L 9.136719 9.652344 L 0.359375 9.652344 Z M 0.359375 0 " clip-rule="nonzero"></path></clipPath><clipPath id="4d21086fd0"><path d="M 2.445312 4.789062 C 2.445312 6.90625 3.230469 7.964844 4.792969 7.964844 C 6.339844 7.964844 7.113281 6.90625 7.113281 4.789062 C 7.113281 2.695312 6.335938 1.648438 4.777344 1.648438 C 3.957031 1.648438 3.363281 1.921875 3 2.460938 C 2.632812 3 2.445312 3.777344 2.445312 4.789062 M 9.121094 4.789062 C 9.121094 6.285156 8.738281 7.457031 7.964844 8.296875 C 7.195312 9.132812 6.128906 9.554688 4.757812 9.554688 C 3.902344 9.554688 3.144531 9.363281 2.488281 8.976562 C 1.828125 8.589844 1.324219 8.035156 0.972656 7.3125 C 0.621094 6.585938 0.441406 5.746094 0.441406 4.789062 C 0.441406 3.300781 0.824219 2.144531 1.585938 1.304688 C 2.347656 0.46875 3.421875 0.0546875 4.8125 0.0546875 C 6.140625 0.0546875 7.1875 0.484375 7.960938 1.335938 C 8.738281 2.191406 9.125 3.34375 9.125 4.789062 " clip-rule="nonzero"></path></clipPath><clipPath id="78cae81115"><rect x="0" width="10" y="0" height="10"></rect></clipPath><clipPath id="d1d49636cd"><path d="M 273.808594 207 L 279.6875 207 L 279.6875 216.40625 L 273.808594 216.40625 Z M 273.808594 207 " clip-rule="nonzero"></path></clipPath><clipPath id="17799dd944"><path d="M 278.535156 207.054688 C 278.925781 207.054688 279.25 207.082031 279.503906 207.140625 L 279.3125 208.953125 C 279.035156 208.886719 278.746094 208.855469 278.449219 208.855469 C 277.667969 208.855469 277.039062 209.109375 276.554688 209.617188 C 276.074219 210.125 275.828125 210.78125 275.828125 211.597656 L 275.828125 216.390625 L 273.882812 216.390625 L 273.882812 207.222656 L 275.410156 207.222656 L 275.667969 208.839844 L 275.769531 208.839844 C 276.070312 208.292969 276.46875 207.859375 276.957031 207.539062 C 277.445312 207.21875 277.972656 207.058594 278.539062 207.058594 " clip-rule="nonzero"></path></clipPath><clipPath id="a6c4ab4b35"><path d="M 0.839844 0 L 6.601562 0 L 6.601562 9.40625 L 0.839844 9.40625 Z M 0.839844 0 " clip-rule="nonzero"></path></clipPath><clipPath id="7db14a589c"><path d="M 5.535156 0.0546875 C 5.925781 0.0546875 6.25 0.0820312 6.503906 0.140625 L 6.3125 1.953125 C 6.035156 1.886719 5.746094 1.855469 5.449219 1.855469 C 4.667969 1.855469 4.039062 2.109375 3.554688 2.617188 C 3.074219 3.125 2.828125 3.78125 2.828125 4.597656 L 2.828125 9.390625 L 0.882812 9.390625 L 0.882812 0.222656 L 2.410156 0.222656 L 2.667969 1.839844 L 2.769531 1.839844 C 3.070312 1.292969 3.46875 0.859375 3.957031 0.539062 C 4.445312 0.21875 4.972656 0.0585938 5.539062 0.0585938 " clip-rule="nonzero"></path></clipPath><clipPath id="fe6b428f80"><rect x="0" width="7" y="0" height="10"></rect></clipPath><clipPath id="b389953752"><path d="M 282.140625 207 L 290.46875 207 L 290.46875 216.652344 L 282.140625 216.652344 Z M 282.140625 207 " clip-rule="nonzero"></path></clipPath><clipPath id="485061fb38"><path d="M 286.375 208.535156 C 285.753906 208.535156 285.257812 208.730469 284.886719 209.121094 C 284.511719 209.511719 284.289062 210.082031 284.21875 210.835938 L 288.378906 210.835938 C 288.363281 210.078125 288.183594 209.503906 287.828125 209.117188 C 287.476562 208.730469 286.988281 208.535156 286.367188 208.535156 M 286.726562 216.554688 C 285.300781 216.554688 284.183594 216.140625 283.378906 215.308594 C 282.578125 214.476562 282.171875 213.332031 282.171875 211.875 C 282.171875 210.378906 282.546875 209.203125 283.289062 208.34375 C 284.035156 207.484375 285.0625 207.058594 286.363281 207.058594 C 287.574219 207.058594 288.527344 207.429688 289.234375 208.164062 C 289.9375 208.898438 290.285156 209.910156 290.285156 211.199219 L 290.285156 212.25 L 284.1875 212.25 C 284.214844 213.140625 284.453125 213.820312 284.90625 214.300781 C 285.363281 214.78125 286 215.019531 286.824219 215.019531 C 287.363281 215.019531 287.871094 214.96875 288.335938 214.867188 C 288.804688 214.765625 289.304688 214.597656 289.84375 214.355469 L 289.84375 215.941406 C 289.367188 216.167969 288.886719 216.328125 288.398438 216.421875 C 287.914062 216.515625 287.359375 216.566406 286.734375 216.566406 " clip-rule="nonzero"></path></clipPath><clipPath id="6aaa6d4083"><path d="M 0.140625 0 L 8.398438 0 L 8.398438 9.652344 L 0.140625 9.652344 Z M 0.140625 0 " clip-rule="nonzero"></path></clipPath><clipPath id="42acd3432b"><path d="M 4.375 1.535156 C 3.753906 1.535156 3.257812 1.730469 2.886719 2.121094 C 2.511719 2.511719 2.289062 3.082031 2.21875 3.835938 L 6.378906 3.835938 C 6.363281 3.078125 6.183594 2.503906 5.828125 2.117188 C 5.476562 1.730469 4.988281 1.535156 4.367188 1.535156 M 4.726562 9.554688 C 3.300781 9.554688 2.183594 9.140625 1.378906 8.308594 C 0.578125 7.476562 0.171875 6.332031 0.171875 4.875 C 0.171875 3.378906 0.546875 2.203125 1.289062 1.34375 C 2.035156 0.484375 3.0625 0.0585938 4.363281 0.0585938 C 5.574219 0.0585938 6.527344 0.429688 7.234375 1.164062 C 7.9375 1.898438 8.285156 2.910156 8.285156 4.199219 L 8.285156 5.25 L 2.1875 5.25 C 2.214844 6.140625 2.453125 6.820312 2.90625 7.300781 C 3.363281 7.78125 4 8.019531 4.824219 8.019531 C 5.363281 8.019531 5.871094 7.96875 6.335938 7.867188 C 6.804688 7.765625 7.304688 7.597656 7.84375 7.355469 L 7.84375 8.941406 C 7.367188 9.167969 6.886719 9.328125 6.398438 9.421875 C 5.914062 9.515625 5.359375 9.566406 4.734375 9.566406 " clip-rule="nonzero"></path></clipPath><clipPath id="6fc480034b"><rect x="0" width="9" y="0" height="10"></rect></clipPath><clipPath id="cc7dbbe692"><path d="M 237.308594 174.027344 L 263.273438 174.027344 L 263.273438 201.953125 L 237.308594 201.953125 Z M 237.308594 174.027344 " clip-rule="nonzero"></path></clipPath><clipPath id="97dfab2569"><path d="M 249.285156 190.808594 L 253.714844 180.632812 L 254.820312 190.808594 Z M 249.839844 174.265625 L 237.328125 201.878906 L 244.992188 201.878906 L 246.839844 196.703125 L 255.304688 196.703125 L 256.007812 201.878906 L 263.207031 201.878906 L 259.34375 174.265625 Z M 249.839844 174.265625 " clip-rule="nonzero"></path></clipPath><clipPath id="d05f266f71"><path d="M 0.308594 0.238281 L 26.273438 0.238281 L 26.273438 27.953125 L 0.308594 27.953125 Z M 0.308594 0.238281 " clip-rule="nonzero"></path></clipPath><clipPath id="1fbd879087"><path d="M 12.285156 16.808594 L 16.714844 6.632812 L 17.820312 16.808594 Z M 12.839844 0.265625 L 0.328125 27.878906 L 7.992188 27.878906 L 9.839844 22.703125 L 18.304688 22.703125 L 19.007812 27.878906 L 26.207031 27.878906 L 22.34375 0.265625 Z M 12.839844 0.265625 " clip-rule="nonzero"></path></clipPath><clipPath id="3c134be281"><rect x="0" width="27" y="0" height="28"></rect></clipPath><clipPath id="8fc5de1d4a"><path d="M 215.503906 173.78125 L 239.511719 173.78125 L 239.511719 202.445312 L 215.503906 202.445312 Z M 215.503906 173.78125 " clip-rule="nonzero"></path></clipPath><clipPath id="c7c83c6659"><path d="M 226.726562 181.460938 C 227.820312 180.480469 229.050781 179.984375 230.410156 179.984375 C 231.46875 179.984375 232.488281 180.160156 233.46875 180.507812 C 234.449219 180.855469 235.527344 181.371094 236.699219 182.066406 L 239.496094 176.308594 C 236.773438 174.660156 233.746094 173.832031 230.410156 173.832031 C 227.578125 173.832031 225.058594 174.542969 222.863281 175.964844 C 221.394531 176.914062 220.132812 178.171875 219.078125 179.738281 C 222.835938 180.03125 222.421875 180.261719 222.421875 180.261719 C 220.285156 184.503906 218.007812 188.488281 215.746094 192.144531 C 215.847656 195.265625 216.730469 197.699219 218.386719 199.453125 C 220.15625 201.320312 222.675781 202.257812 225.953125 202.257812 C 228.933594 202.257812 231.707031 201.691406 234.261719 200.554688 L 234.261719 194.453125 C 232.816406 195.074219 231.554688 195.507812 230.484375 195.769531 C 229.417969 196.027344 228.355469 196.15625 227.3125 196.15625 C 225.992188 196.15625 224.980469 195.742188 224.273438 194.90625 C 223.5625 194.074219 223.210938 192.820312 223.210938 191.128906 C 223.210938 189.117188 223.523438 187.246094 224.148438 185.523438 C 224.769531 183.800781 225.628906 182.445312 226.726562 181.460938 " clip-rule="nonzero"></path></clipPath><clipPath id="16f0c8f62b"><path d="M 0.519531 0.78125 L 24.511719 0.78125 L 24.511719 29.320312 L 0.519531 29.320312 Z M 0.519531 0.78125 " clip-rule="nonzero"></path></clipPath><clipPath id="11b9b21559"><path d="M 11.726562 8.460938 C 12.820312 7.480469 14.050781 6.984375 15.410156 6.984375 C 16.46875 6.984375 17.488281 7.160156 18.46875 7.507812 C 19.449219 7.855469 20.527344 8.371094 21.699219 9.066406 L 24.496094 3.308594 C 21.773438 1.660156 18.746094 0.832031 15.410156 0.832031 C 12.578125 0.832031 10.058594 1.542969 7.863281 2.964844 C 6.394531 3.914062 5.132812 5.171875 4.078125 6.738281 C 7.835938 7.03125 7.421875 7.261719 7.421875 7.261719 C 5.285156 11.503906 3.007812 15.488281 0.746094 19.144531 C 0.847656 22.265625 1.730469 24.699219 3.386719 26.453125 C 5.15625 28.320312 7.675781 29.257812 10.953125 29.257812 C 13.933594 29.257812 16.707031 28.691406 19.261719 27.554688 L 19.261719 21.453125 C 17.816406 22.074219 16.554688 22.507812 15.484375 22.769531 C 14.417969 23.027344 13.355469 23.15625 12.3125 23.15625 C 10.992188 23.15625 9.980469 22.742188 9.273438 21.90625 C 8.5625 21.074219 8.210938 19.820312 8.210938 18.128906 C 8.210938 16.117188 8.523438 14.246094 9.148438 12.523438 C 9.769531 10.800781 10.628906 9.445312 11.726562 8.460938 " clip-rule="nonzero"></path></clipPath><clipPath id="56e9247f85"><rect x="0" width="25" y="0" height="30"></rect></clipPath><clipPath id="985db8f14b"><path d="M 267.195312 174.027344 L 290.46875 174.027344 L 290.46875 201.953125 L 267.195312 201.953125 Z M 267.195312 174.027344 " clip-rule="nonzero"></path></clipPath><clipPath id="da77597c9d"><path d="M 281.851562 185.1875 C 281.148438 185.875 280.195312 186.21875 279 186.21875 L 278.039062 186.21875 L 279.359375 179.910156 L 280.359375 179.910156 C 281.191406 179.910156 281.824219 180.117188 282.257812 180.523438 C 282.691406 180.933594 282.90625 181.53125 282.90625 182.3125 C 282.90625 183.546875 282.554688 184.507812 281.851562 185.191406 M 284.96875 190.320312 C 286.734375 189.554688 288.0625 188.4375 288.957031 186.976562 C 289.851562 185.515625 290.296875 183.804688 290.296875 181.839844 C 290.296875 179.308594 289.457031 177.410156 287.765625 176.15625 C 286.078125 174.898438 283.652344 174.265625 280.476562 174.265625 L 273.160156 174.265625 L 267.328125 201.878906 L 274.710938 201.878906 L 276.84375 191.832031 L 278.226562 191.832031 L 281.910156 201.878906 L 289.953125 201.878906 L 289.203125 200.066406 Z M 284.96875 190.320312 " clip-rule="nonzero"></path></clipPath><clipPath id="33dfcdd8e6"><path d="M 0.195312 0.238281 L 23.398438 0.238281 L 23.398438 27.953125 L 0.195312 27.953125 Z M 0.195312 0.238281 " clip-rule="nonzero"></path></clipPath><clipPath id="7563905c94"><path d="M 14.851562 11.1875 C 14.148438 11.875 13.195312 12.21875 12 12.21875 L 11.039062 12.21875 L 12.359375 5.910156 L 13.359375 5.910156 C 14.191406 5.910156 14.824219 6.117188 15.257812 6.523438 C 15.691406 6.933594 15.90625 7.53125 15.90625 8.3125 C 15.90625 9.546875 15.554688 10.507812 14.851562 11.191406 M 17.96875 16.320312 C 19.734375 15.554688 21.0625 14.4375 21.957031 12.976562 C 22.851562 11.515625 23.296875 9.804688 23.296875 7.839844 C 23.296875 5.308594 22.457031 3.410156 20.765625 2.15625 C 19.078125 0.898438 16.652344 0.265625 13.476562 0.265625 L 6.160156 0.265625 L 0.328125 27.878906 L 7.710938 27.878906 L 9.84375 17.832031 L 11.226562 17.832031 L 14.910156 27.878906 L 22.953125 27.878906 L 22.203125 26.066406 Z M 17.96875 16.320312 " clip-rule="nonzero"></path></clipPath><clipPath id="e704d993d6"><rect x="0" width="24" y="0" height="28"></rect></clipPath><clipPath id="34d3f2f6b8"><path d="M 84.683594 174.027344 L 106.976562 174.027344 L 106.976562 201.953125 L 84.683594 201.953125 Z M 84.683594 174.027344 " clip-rule="nonzero"></path></clipPath><clipPath id="24d99ae709"><path d="M 96.660156 180.253906 L 105.558594 180.253906 L 106.820312 174.265625 L 90.542969 174.265625 L 84.707031 201.878906 L 92.089844 201.878906 L 94.226562 191.546875 L 102.496094 191.546875 L 103.800781 185.523438 L 95.566406 185.523438 Z M 96.660156 180.253906 " clip-rule="nonzero"></path></clipPath><clipPath id="c53d87c188"><path d="M 0.683594 0.238281 L 22.976562 0.238281 L 22.976562 27.953125 L 0.683594 27.953125 Z M 0.683594 0.238281 " clip-rule="nonzero"></path></clipPath><clipPath id="076b803f83"><path d="M 12.660156 6.253906 L 21.558594 6.253906 L 22.820312 0.265625 L 6.542969 0.265625 L 0.707031 27.878906 L 8.089844 27.878906 L 10.226562 17.546875 L 18.496094 17.546875 L 19.800781 11.523438 L 11.566406 11.523438 Z M 12.660156 6.253906 " clip-rule="nonzero"></path></clipPath><clipPath id="b83ff9bd1e"><rect x="0" width="23" y="0" height="28"></rect></clipPath><clipPath id="dd31e4b059"><path d="M 105.015625 174.027344 L 122.902344 174.027344 L 122.902344 201.953125 L 105.015625 201.953125 Z M 105.015625 174.027344 " clip-rule="nonzero"></path></clipPath><clipPath id="54a0ef266c"><path d="M 118.265625 174.261719 L 110.878906 174.261719 L 105.042969 201.875 L 121.4375 201.875 L 122.71875 195.847656 L 113.710938 195.847656 Z M 118.265625 174.261719 " clip-rule="nonzero"></path></clipPath><clipPath id="5d35f4f7df"><path d="M 0.015625 0.238281 L 17.878906 0.238281 L 17.878906 27.953125 L 0.015625 27.953125 Z M 0.015625 0.238281 " clip-rule="nonzero"></path></clipPath><clipPath id="5fb56daabc"><path d="M 13.265625 0.261719 L 5.878906 0.261719 L 0.0429688 27.875 L 16.4375 27.875 L 17.71875 21.847656 L 8.710938 21.847656 Z M 13.265625 0.261719 " clip-rule="nonzero"></path></clipPath><clipPath id="00c7f31bc9"><rect x="0" width="18" y="0" height="28"></rect></clipPath><clipPath id="416953d22b"><path d="M 125.351562 174.027344 L 151.5625 174.027344 L 151.5625 201.953125 L 125.351562 201.953125 Z M 125.351562 174.027344 " clip-rule="nonzero"></path></clipPath><clipPath id="00d069b057"><path d="M 137.421875 190.808594 L 141.851562 180.632812 L 142.953125 190.808594 Z M 137.976562 174.265625 L 125.464844 201.878906 L 133.132812 201.878906 L 134.980469 196.703125 L 143.445312 196.703125 L 144.148438 201.878906 L 151.34375 201.878906 L 147.480469 174.265625 Z M 137.976562 174.265625 " clip-rule="nonzero"></path></clipPath><clipPath id="05cb63bde8"><path d="M 0.351562 0.238281 L 26.441406 0.238281 L 26.441406 27.953125 L 0.351562 27.953125 Z M 0.351562 0.238281 " clip-rule="nonzero"></path></clipPath><clipPath id="b6b6c17a9b"><path d="M 12.421875 16.808594 L 16.851562 6.632812 L 17.953125 16.808594 Z M 12.976562 0.265625 L 0.464844 27.878906 L 8.132812 27.878906 L 9.980469 22.703125 L 18.445312 22.703125 L 19.148438 27.878906 L 26.34375 27.878906 L 22.480469 0.265625 Z M 12.976562 0.265625 " clip-rule="nonzero"></path></clipPath><clipPath id="9f3df45c38"><rect x="0" width="27" y="0" height="28"></rect></clipPath><clipPath id="a78f8406d5"><path d="M 175.328125 174.027344 L 202.765625 174.027344 L 202.765625 201.953125 L 175.328125 201.953125 Z M 175.328125 174.027344 " clip-rule="nonzero"></path></clipPath><clipPath id="2e59734958"><path d="M 201.570312 179.339844 L 202.644531 174.261719 L 195.242188 174.261719 L 193.128906 184.5 L 186.554688 184.5 L 188.667969 174.261719 L 181.285156 174.261719 L 175.449219 201.875 L 182.832031 201.875 L 185.234375 190.617188 L 191.769531 190.617188 L 189.410156 201.875 L 196.792969 201.875 L 199.527344 188.964844 L 196.0625 188.640625 C 197.617188 185.601562 199.519531 182.445312 201.574219 179.335938 " clip-rule="nonzero"></path></clipPath><clipPath id="7a3eb3dc8b"><path d="M 0.441406 0.238281 L 27.765625 0.238281 L 27.765625 27.953125 L 0.441406 27.953125 Z M 0.441406 0.238281 " clip-rule="nonzero"></path></clipPath><clipPath id="7b6fae9754"><path d="M 26.570312 5.339844 L 27.644531 0.261719 L 20.242188 0.261719 L 18.128906 10.5 L 11.554688 10.5 L 13.667969 0.261719 L 6.285156 0.261719 L 0.449219 27.875 L 7.832031 27.875 L 10.234375 16.617188 L 16.769531 16.617188 L 14.410156 27.875 L 21.792969 27.875 L 24.527344 14.964844 L 21.0625 14.640625 C 22.617188 11.601562 24.519531 8.445312 26.574219 5.335938 " clip-rule="nonzero"></path></clipPath><clipPath id="30c70689ee"><rect x="0" width="28" y="0" height="28"></rect></clipPath><clipPath id="81e254097b"><path d="M 155 170.597656 L 176 170.597656 L 176 204.648438 L 155 204.648438 Z M 155 170.597656 " clip-rule="nonzero"></path></clipPath><clipPath id="6a73fba86c"><path d="M 166.085938 180.363281 C 166.523438 180.011719 167.140625 179.835938 167.949219 179.835938 C 169.457031 179.835938 171.292969 180.386719 173.445312 181.496094 L 175.996094 175.886719 C 174.449219 175.019531 172.777344 174.4375 170.980469 174.125 L 171.894531 170.832031 L 166.824219 170.832031 L 165.949219 174.007812 C 164.828125 174.171875 163.789062 174.488281 162.820312 174.953125 C 161.316406 175.679688 160.152344 176.699219 159.328125 178.011719 C 158.503906 179.328125 158.089844 180.808594 158.089844 182.460938 C 158.089844 183.9375 158.425781 185.292969 159.09375 186.523438 C 159.761719 187.757812 160.828125 188.96875 162.304688 190.152344 C 163.511719 191.15625 164.253906 191.8125 164.53125 192.105469 C 164.808594 192.398438 165.019531 192.699219 165.171875 192.992188 C 165.324219 193.285156 165.398438 193.605469 165.398438 193.945312 C 165.398438 194.664062 165.160156 195.214844 164.683594 195.605469 C 164.207031 196 163.496094 196.191406 162.566406 196.191406 C 161.457031 196.191406 160.21875 195.964844 158.855469 195.507812 C 157.492188 195.054688 156.277344 194.5 155.222656 193.832031 L 155.222656 200.441406 C 156.082031 201.011719 157.101562 201.445312 158.273438 201.753906 L 157.484375 204.605469 L 162.542969 204.605469 L 163.199219 202.234375 C 166.097656 202.109375 168.398438 201.339844 170.082031 199.921875 C 171.929688 198.367188 172.855469 196.191406 172.855469 193.398438 C 172.855469 191.839844 172.496094 190.453125 171.777344 189.242188 C 171.0625 188.03125 169.960938 186.882812 168.472656 185.785156 C 167.289062 184.890625 166.488281 184.175781 166.0625 183.644531 C 165.640625 183.109375 165.429688 182.535156 165.429688 181.914062 C 165.429688 181.234375 165.648438 180.722656 166.082031 180.363281 " clip-rule="nonzero"></path></clipPath><clipPath id="be2a78a097"><path d="M 0.0390625 0.640625 L 21 0.640625 L 21 34.648438 L 0.0390625 34.648438 Z M 0.0390625 0.640625 " clip-rule="nonzero"></path></clipPath><clipPath id="0c62edfa9c"><path d="M 11.085938 10.363281 C 11.523438 10.011719 12.140625 9.835938 12.949219 9.835938 C 14.457031 9.835938 16.292969 10.386719 18.445312 11.496094 L 20.996094 5.886719 C 19.449219 5.019531 17.777344 4.4375 15.980469 4.125 L 16.894531 0.832031 L 11.824219 0.832031 L 10.949219 4.007812 C 9.828125 4.171875 8.789062 4.488281 7.820312 4.953125 C 6.316406 5.679688 5.152344 6.699219 4.328125 8.011719 C 3.503906 9.328125 3.089844 10.808594 3.089844 12.460938 C 3.089844 13.9375 3.425781 15.292969 4.09375 16.523438 C 4.761719 17.757812 5.828125 18.96875 7.304688 20.152344 C 8.511719 21.15625 9.253906 21.8125 9.53125 22.105469 C 9.808594 22.398438 10.019531 22.699219 10.171875 22.992188 C 10.324219 23.285156 10.398438 23.605469 10.398438 23.945312 C 10.398438 24.664062 10.160156 25.214844 9.683594 25.605469 C 9.207031 26 8.496094 26.191406 7.566406 26.191406 C 6.457031 26.191406 5.21875 25.964844 3.855469 25.507812 C 2.492188 25.054688 1.277344 24.5 0.222656 23.832031 L 0.222656 30.441406 C 1.082031 31.011719 2.101562 31.445312 3.273438 31.753906 L 2.484375 34.605469 L 7.542969 34.605469 L 8.199219 32.234375 C 11.097656 32.109375 13.398438 31.339844 15.082031 29.921875 C 16.929688 28.367188 17.855469 26.191406 17.855469 23.398438 C 17.855469 21.839844 17.496094 20.453125 16.777344 19.242188 C 16.0625 18.03125 14.960938 16.882812 13.472656 15.785156 C 12.289062 14.890625 11.488281 14.175781 11.0625 13.644531 C 10.640625 13.109375 10.429688 12.535156 10.429688 11.914062 C 10.429688 11.234375 10.648438 10.722656 11.082031 10.363281 " clip-rule="nonzero"></path></clipPath><clipPath id="c03ead3d8d"><rect x="0" width="21" y="0" height="35"></rect></clipPath><clipPath id="62f72ad1ad"><path d="M 197.375 158.347656 L 221.136719 158.347656 L 221.136719 211.753906 L 197.375 211.753906 Z M 197.375 158.347656 " clip-rule="nonzero"></path></clipPath><clipPath id="baef72b645"><path d="M 212.78125 179.515625 L 218.699219 158.371094 C 218.699219 158.371094 204.246094 174.441406 197.402344 187.816406 L 206.476562 188.664062 C 206.476562 188.664062 199.328125 208.652344 199.785156 211.652344 C 199.785156 211.652344 211.859375 198.582031 221.082031 180.285156 C 221.082031 180.285156 221.773438 179.902344 212.78125 179.515625 " clip-rule="nonzero"></path></clipPath><clipPath id="fa326c0fbe"><path d="M 0.375 0.347656 L 24.136719 0.347656 L 24.136719 53.679688 L 0.375 53.679688 Z M 0.375 0.347656 " clip-rule="nonzero"></path></clipPath><clipPath id="0264347c4c"><path d="M 15.78125 21.515625 L 21.699219 0.371094 C 21.699219 0.371094 7.246094 16.441406 0.402344 29.816406 L 9.476562 30.664062 C 9.476562 30.664062 2.328125 50.652344 2.785156 53.652344 C 2.785156 53.652344 14.859375 40.582031 24.082031 22.285156 C 24.082031 22.285156 24.773438 21.902344 15.78125 21.515625 " clip-rule="nonzero"></path></clipPath><clipPath id="da4a0d0492"><rect x="0" width="25" y="0" height="54"></rect></clipPath></defs><g clip-path="url(#a6d72fd10d)"><g clip-path="url(#2c6cae8cf3)"><g transform="matrix(1, 0, 0, 1, 237, 214)"><g clip-path="url(#7145e75ee2)"><g clip-path="url(#7ef9a65a82)"><g clip-path="url(#4c7475ad0e)"><rect x="-319.5" width="540" fill="#ffffff" height="539.999987" y="-296.499998" fill-opacity="1"></rect></g></g></g></g></g></g><g clip-path="url(#a63c4ba3d4)"><g clip-path="url(#dcc191036b)"><g transform="matrix(1, 0, 0, 1, 243, 207)"><g clip-path="url(#b39fa86335)"><g clip-path="url(#0e70a5f763)"><g clip-path="url(#acc6a26586)"><rect x="-325.5" width="540" fill="#ffffff" height="539.999987" y="-289.499998" fill-opacity="1"></rect></g></g></g></g></g></g><g clip-path="url(#1fd59c7863)"><g clip-path="url(#70c153e149)"><g transform="matrix(1, 0, 0, 1, 252, 205)"><g clip-path="url(#8e8b85665d)"><g clip-path="url(#b03ea83bc0)"><g clip-path="url(#4a050e2bf4)"><rect x="-334.5" width="540" fill="#ffffff" height="539.999987" y="-287.499998" fill-opacity="1"></rect></g></g></g></g></g></g><g clip-path="url(#6cccf19a20)"><g clip-path="url(#2328b5836e)"><g transform="matrix(1, 0, 0, 1, 261, 207)"><g clip-path="url(#78cae81115)"><g clip-path="url(#7212a4254b)"><g clip-path="url(#4d21086fd0)"><rect x="-343.5" width="540" fill="#ffffff" height="539.999987" y="-289.499998" fill-opacity="1"></rect></g></g></g></g></g></g><g clip-path="url(#d1d49636cd)"><g clip-path="url(#17799dd944)"><g transform="matrix(1, 0, 0, 1, 273, 207)"><g clip-path="url(#fe6b428f80)"><g clip-path="url(#a6c4ab4b35)"><g clip-path="url(#7db14a589c)"><rect x="-355.5" width="540" fill="#ffffff" height="539.999987" y="-289.499998" fill-opacity="1"></rect></g></g></g></g></g></g><g clip-path="url(#b389953752)"><g clip-path="url(#485061fb38)"><g transform="matrix(1, 0, 0, 1, 282, 207)"><g clip-path="url(#6fc480034b)"><g clip-path="url(#6aaa6d4083)"><g clip-path="url(#42acd3432b)"><rect x="-364.5" width="540" fill="#ffffff" height="539.999987" y="-289.499998" fill-opacity="1"></rect></g></g></g></g></g></g><g clip-path="url(#cc7dbbe692)"><g clip-path="url(#97dfab2569)"><g transform="matrix(1, 0, 0, 1, 237, 174)"><g clip-path="url(#3c134be281)"><g clip-path="url(#d05f266f71)"><g clip-path="url(#1fbd879087)"><rect x="-319.5" width="540" fill="#ffffff" height="539.999987" y="-256.499998" fill-opacity="1"></rect></g></g></g></g></g></g><g clip-path="url(#8fc5de1d4a)"><g clip-path="url(#c7c83c6659)"><g transform="matrix(1, 0, 0, 1, 215, 173)"><g clip-path="url(#56e9247f85)"><g clip-path="url(#16f0c8f62b)"><g clip-path="url(#11b9b21559)"><rect x="-297.5" width="540" fill="#ffffff" height="539.999987" y="-255.499998" fill-opacity="1"></rect></g></g></g></g></g></g><g clip-path="url(#985db8f14b)"><g clip-path="url(#da77597c9d)"><g transform="matrix(1, 0, 0, 1, 267, 174)"><g clip-path="url(#e704d993d6)"><g clip-path="url(#33dfcdd8e6)"><g clip-path="url(#7563905c94)"><rect x="-349.5" width="540" fill="#ffffff" height="539.999987" y="-256.499998" fill-opacity="1"></rect></g></g></g></g></g></g><g clip-path="url(#34d3f2f6b8)"><g clip-path="url(#24d99ae709)"><g transform="matrix(1, 0, 0, 1, 84, 174)"><g clip-path="url(#b83ff9bd1e)"><g clip-path="url(#c53d87c188)"><g clip-path="url(#076b803f83)"><rect x="-166.5" width="540" fill="#ffffff" height="539.999987" y="-256.499998" fill-opacity="1"></rect></g></g></g></g></g></g><g clip-path="url(#dd31e4b059)"><g clip-path="url(#54a0ef266c)"><g transform="matrix(1, 0, 0, 1, 105, 174)"><g clip-path="url(#00c7f31bc9)"><g clip-path="url(#5d35f4f7df)"><g clip-path="url(#5fb56daabc)"><rect x="-187.5" width="540" fill="#ffffff" height="539.999987" y="-256.499998" fill-opacity="1"></rect></g></g></g></g></g></g><g clip-path="url(#416953d22b)"><g clip-path="url(#00d069b057)"><g transform="matrix(1, 0, 0, 1, 125, 174)"><g clip-path="url(#9f3df45c38)"><g clip-path="url(#05cb63bde8)"><g clip-path="url(#b6b6c17a9b)"><rect x="-207.5" width="540" fill="#ffffff" height="539.999987" y="-256.499998" fill-opacity="1"></rect></g></g></g></g></g></g><g clip-path="url(#a78f8406d5)"><g clip-path="url(#2e59734958)"><g transform="matrix(1, 0, 0, 1, 175, 174)"><g clip-path="url(#30c70689ee)"><g clip-path="url(#7a3eb3dc8b)"><g clip-path="url(#7b6fae9754)"><rect x="-257.5" width="540" fill="#ffffff" height="539.999987" y="-256.499998" fill-opacity="1"></rect></g></g></g></g></g></g><g clip-path="url(#81e254097b)"><g clip-path="url(#6a73fba86c)"><g transform="matrix(1, 0, 0, 1, 155, 170)"><g clip-path="url(#c03ead3d8d)"><g clip-path="url(#be2a78a097)"><g clip-path="url(#0c62edfa9c)"><rect x="-237.5" width="540" fill="#60b239" height="539.999987" y="-252.499998" fill-opacity="1"></rect></g></g></g></g></g></g><g clip-path="url(#62f72ad1ad)"><g clip-path="url(#baef72b645)"><g transform="matrix(1, 0, 0, 1, 197, 158)"><g clip-path="url(#da4a0d0492)"><g clip-path="url(#fa326c0fbe)"><g clip-path="url(#0264347c4c)"><rect x="-279.5" width="540" fill="#fce61d" height="539.999987" y="-240.499998" fill-opacity="1"></rect></g></g></g></g></g></g></svg>